# AST/ASF file generated using VICON BodyLanguage
# -----------------------------------------------
:version 1.10
:name VICON
:units
  mass 1.0
  length 0.45
  angle deg
:documentation
   .ast/.asf automatically generated from VICON data using
   VICON BodyBuilder and BodyLanguage model FoxedUp or BRILLIANT.MOD
:root
   order TX TY TZ RX RY RZ
   axis XYZ
   position 0 0 0  
   orientation 0 0 0 
:bonedata
  begin
     id 1 
     name lhipjoint
     direction 0.682418 -0.694059 0.22932 
     length 2.25561 
     axis 0 0 0  XYZ
  end
  begin
     id 2 
     name lfemur
     direction 0.34202 -0.939693 0  
     length 6.96448  
     axis 0 0 20  XYZ
    dof rx ry rz
    limits (-160.0 20.0)
           (-70.0 70.0)
           (-60.0 70.0)
  end
  begin
     id 3 
     name ltibia
     direction 0.34202 -0.939693 0   
     length 6.88553   
     axis 0 0 20   XYZ
    dof rx
    limits (-10.0 170.0)
  end
  begin
     id 4 
     name lfoot
     direction 0.0723587 -0.198804 0.977364   
     length 1.88518   
     axis -90 7.62852e-016 20   XYZ
    dof rx rz
    limits (-45.0 90.0)
           (-70.0 20.0)
  end
  begin
     id 5 
     name ltoes
     direction 1.53558e-011 -4.21962e-011 1   
     length 0.952124   
     axis -90 7.62852e-016 20   XYZ
    dof rx
    limits (-90.0 20.0)
  end
  begin
     id 6 
     name rhipjoint
     direction -0.657603 -0.71533 0.236348   
     length 2.18854  
     axis 0 0 0  XYZ 
  end
  begin
     id 7 
     name rfemur
     direction -0.34202 -0.939693 0   
     length 6.86686   
     axis 0 0 -20   XYZ
    dof rx ry rz
    limits (-160.0 20.0)
           (-70.0 70.0)
           (-70.0 60.0)
  end
  begin
     id 8 
     name rtibia
     direction -0.34202 -0.939693 0   
     length 6.59503   
     axis 0 0 -20   XYZ
    dof rx
    limits (-10.0 170.0)
 end
 begin
     id 9 
     name rfoot
     direction -0.101977 -0.280179 0.954516   
     length 1.93723  
     axis -90 -7.62852e-016 -20   XYZ
    dof rx rz
    limits (-45.0 90.0)
           (-20.0 70.0)
  end
  begin
     id 10 
     name rtoes
     direction -1.53564e-011 -4.21897e-011 1   
     length 0.970315   
     axis -90 -7.62852e-016 -20   XYZ
    dof rx
    limits (-90.0 20.0)
  end
  begin
     id 11 
     name lowerback
     direction -0.0339559 0.999421 -0.00235966   
     length 1.88543   
     axis 0 0 0   XYZ
    dof rx ry rz
    limits (-20.0 45.0)
           (-30.0 30.0)
           (-30.0 30.0)
  end
  begin
     id 12 
     name upperback
     direction 0.00401003 0.999739 0.0224689   
     length 1.8856   
     axis 0 0 0   XYZ
    dof rx ry rz
    limits (-20.0 45.0)
           (-30.0 30.0)
           (-30.0 30.0)
  end
  begin
     id 13 
     name thorax
     direction 0.0198619 0.999546 0.0226536   
     length 1.88352   
     axis 0 0 0   XYZ
    dof rx ry rz
    limits (-20.0 45.0)
           (-30.0 30.0)
           (-30.0 30.0)
  end
  begin
     id 14 
     name lowerneck
     direction -0.0461848 0.998632 0.0245198   
     length 1.34895   
     axis 0 0 0   XYZ
    dof rx ry rz
    limits (-20.0 45.0)
           (-30.0 30.0)
           (-30.0 30.0)
  end
  begin
     id 15 
     name upperneck
     direction -0.0180627 0.994724 -0.100984   
     length 1.35214   
     axis 0 0 0   XYZ
    dof rx ry rz
    limits (-20.0 45.0)
           (-30.0 30.0)
           (-30.0 30.0)
  end
  begin
     id 16
     name head
     direction -0.00374772 0.999293 -0.037403  
     length 1.3568  
     axis 0 0 0   XYZ
    dof rx ry rz
    limits (-20.0 45.0)
           (-30.0 30.0)
           (-30.0 30.0)
  end
  begin
     id 17 
     name lclavicle
     direction 0.971773 0.191119 0.138311  
     length 2.84954  
     axis 0 0 0   XYZ
    dof ry rz
    limits (-20.0 10.0)
           (0.0 20.0)
  end
  begin
     id 18 
     name lhumerus
     direction 1 -4.4897e-011 -2.43761e-027   
     length 4.40919   
     axis 180 -30 -90   XYZ
    dof rx ry rz
    limits (-60.0 90.0)
           (-90.0 90.0)
           (-90.0 90.0)
  end
  begin
     id 19
     name lradius
     direction 1 -4.4896e-011 -9.1621e-027   
     length 3.03857   
     axis 180 -30 -90   XYZ
    dof rx
    limits (-10.0 170.0)
  end
  begin
     id 20
     name lwrist
     direction 1 -4.4896e-011 -1.41363e-026   
     length 1.51928   
     axis 1.07133e-014 90 90   XYZ
    dof ry
    limits (-180.0 0.0)
 end
  begin
     id 21 
     name lhand
     direction 1 -4.48978e-011 -2.82725e-026   
     length 0.523208   
     axis 1.80403e-014 90 90   XYZ
    dof rx rz
    limits (-90.0 90.0)
           (-45.0 45.0)
  end
  begin
     id 22 
     name lfingers
     direction 1 -4.48977e-011 -5.6545e-026   
     length 0.421824   
     axis 3.60806e-014 90 90   XYZ
    dof rx
    limits (0.0 90.0)
  end
  begin
     id 23
     name lthumb
     direction 0.707107 -6.34962e-011 0.707107   
     length 0.605657   
     axis -90 45 2.85299e-015   XYZ
    dof rx rz
    limits (-45.0 45.0)
           (-45.0 45.0)
  end
  begin
     id 24 
     name rclavicle
     direction -0.957247 0.24311 0.156766   
     length 3.12406  
     axis 0 0 0   XYZ 
    dof ry rz
    limits (-10.0 20.0)
           (-20.0 0.0)
  end
  begin
     id 25 
     name rhumerus
     direction -1 -4.48964e-011 -1.70632e-027  
     length 4.61969   
     axis 180 30 90   XYZ
    dof rx ry rz
    limits (-90.0 60.0)
           (-90.0 90.0)
           (-90.0 90.0)
  end
  begin
     id 26 
     name rradius
     direction -1 -4.48966e-011 -6.60395e-027   
     length 3.09382   
     axis 180 30 90   XYZ
    dof rx
    limits (-10.0 170.0)
  end
  begin
     id 27 
     name rwrist
     direction -1 -4.48963e-011 -1.41363e-026   
     length 1.54691   
     axis 1.07133e-014 -90 -90   XYZ
    dof ry
    limits (-180.0 0.0)
  end
  begin
     id 28
     name rhand
     direction -1 -4.49013e-011 -2.82725e-026   
     length 0.500896   
     axis 1.80403e-014 -90 -90   XYZ
    dof rx rz
    limits (-90.0 90.0)
           (-45.0 45.0)
  end
  begin
     id 29
     name rfingers
     direction -1 -4.48902e-011 -5.6545e-026   
     length 0.403835   
     axis 3.60806e-014 -90 -90   XYZ
    dof rx
    limits (0.0 90.0)
  end
  begin
     id 30
     name rthumb
     direction -0.707107 -6.34953e-011 0.707107   
     length 0.579829   
     axis -90 -45 -2.85299e-015   XYZ
    dof rx rz
    limits (-45.0 45.0)
           (-45.0 45.0)
  end
:hierarchy
  begin
    root lhipjoint rhipjoint lowerback
    lhipjoint lfemur
    lfemur ltibia
    ltibia lfoot
    lfoot ltoes
    rhipjoint rfemur
    rfemur rtibia
    rtibia rfoot
    rfoot rtoes
    lowerback upperback
    upperback thorax
    thorax lowerneck lclavicle rclavicle
    lowerneck upperneck
    upperneck head
    lclavicle lhumerus
    lhumerus lradius
    lradius lwrist
    lwrist lhand lthumb
    lhand lfingers
    rclavicle rhumerus
    rhumerus rradius
    rradius rwrist
    rwrist rhand rthumb
    rhand rfingers
  end

#!OML:ASF E:\madness\Project 1\Capture day 1\Session 1\Female1.ASF
:FULLY-SPECIFIED
:DEGREES
342
root 7.56838 16.5169 1.62507 10.5659 -62.0998 -1.61369
lowerback -6.31483 -0.134258 -3.59443
upperback -5.18253 -0.109501 1.4972
thorax -1.81043 0.0289654 3.56076
lowerneck 2.07731 -11.4529 -7.38085
upperneck 12.5346 -16.0583 4.21417
head 4.37478 -8.16858 1.80794
rclavicle -5.06777e-014 -1.31198e-014
rhumerus -58.9342 -2.78854 -80.2239
rradius 56.6128
rwrist 2.59183
rhand -11.5649 -45.3582
rfingers 7.12502
rthumb 14.4762 -74.8332
lclavicle -5.06777e-014 -1.31198e-014
lhumerus -58.3866 8.57414 78.2117
lradius 73.4708
lwrist -4.10646
lhand -23.0845 -12.9954
lfingers 7.12502
lthumb 3.3615 16.9578
rfemur -1.37246 12.4438 15.153
rtibia 13.9666
rfoot -15.6732 -38.1791
rtoes 20.4621
lfemur -8.17892 -9.51446 -23.4367
ltibia 10.4062
lfoot -5.99587 25.2419
ltoes 23.5161
343
root 7.56892 16.5128 1.61347 10.3822 -62.5188 -1.49484
lowerback -6.11656 -0.167064 -3.62262
upperback -5.2156 -0.15975 1.44664
thorax -1.95053 0.007064 3.52221
lowerneck 2.07708 -11.4639 -7.37359
upperneck 12.6259 -16.0824 4.2091
head 4.40335 -8.18188 1.80089
rclavicle 5.54733e-015 -2.68359e-015
rhumerus -58.8551 -2.90359 -80.2091
rradius 56.3603
rwrist 2.86267
rhand -11.6092 -45.0456
rfingers 7.12502
rthumb 14.4336 -74.5237
lclavicle 5.54733e-015 -2.68359e-015
lhumerus -57.522 9.29539 77.9106
lradius 72.1878
lwrist -4.67799
lhand -23.1444 -12.6603
lfingers 7.12502
lthumb 3.30369 17.2938
rfemur -1.41717 12.5273 15.0504
rtibia 13.9396
rfoot -15.8451 -38.0689
rtoes 20.6304
lfemur -8.14876 -9.4017 -23.531
ltibia 10.5342
lfoot -6.20912 25.553
ltoes 23.7083
344
root 7.5639 16.5192 1.6035 10.5129 -63.0083 -1.69121
lowerback -6.09042 -0.182874 -3.60377
upperback -5.21201 -0.182859 1.47751
thorax -1.95922 -0.00472278 3.54266
lowerneck 2.105 -11.4811 -7.21506
upperneck 12.648 -16.0996 4.08945
head 4.38423 -8.19041 1.74476
rclavicle -7.51655e-016 1.60022e-014
rhumerus -58.8092 -2.79712 -80.2224
rradius 56.2501
rwrist 2.86319
rhand -11.9281 -44.5996
rfingers 7.12502
rthumb 14.1263 -74.0994
lclavicle -7.51655e-016 1.60022e-014
lhumerus -57.5216 9.2391 77.9976
lradius 72.1171
lwrist -4.80436
lhand -23.8318 -11.2402
lfingers 7.12502
lthumb 2.63977 18.7232
rfemur -1.54361 13.0358 15.0595
rtibia 13.97
rfoot -16.7355 -38.1136
rtoes 21.3731
lfemur -8.10008 -9.26058 -23.458
ltibia 10.6013
lfoot -6.32693 25.8311
ltoes 23.7658
345
root 7.5589 16.5229 1.59308 10.7927 -63.5854 -1.95843
lowerback -6.1942 -0.197057 -3.58256
upperback -5.21338 -0.200463 1.5627
thorax -1.90151 -0.0147693 3.61824
lowerneck 2.23099 -11.4957 -7.2829
upperneck 12.5669 -16.1259 4.0982
head 4.34682 -8.2089 1.76594
rclavicle -1.0548e-014 -1.53064e-014
rhumerus -58.7569 -2.456 -80.2378
rradius 56.1594
rwrist 2.73522
rhand -11.9799 -44.6185
rfingers 7.12502
rthumb 14.0764 -74.1217
lclavicle -1.0548e-014 -1.53064e-014
lhumerus -57.3172 9.44025 78.0432
lradius 71.7314
lwrist -4.85927
lhand -24.2993 -10.5687
lfingers 7.12502
lthumb 2.18826 19.3999
rfemur -1.74702 13.3586 15.0901
rtibia 14.0008
rfoot -17.0717 -38.0079
rtoes 21.7626
lfemur -8.10329 -9.13298 -23.3513
ltibia 10.6049
lfoot -6.28136 26.2422
ltoes 23.8443
346
root 7.55594 16.5226 1.5794 10.8282 -64.1107 -1.94309
lowerback -6.2205 -0.185068 -3.61814
upperback -5.23807 -0.184323 1.53284
thorax -1.91429 -0.00620684 3.60812
lowerneck 2.22686 -11.5623 -7.42802
upperneck 12.6805 -16.2393 4.2092
head 4.41013 -8.26761 1.80649
rclavicle 2.09656e-014 2.78299e-015
rhumerus -58.6981 -2.4358 -80.2658
rradius 55.9758
rwrist 2.81985
rhand -11.6334 -44.8959
rfingers 7.12502
rthumb 14.4102 -74.3756
lclavicle 2.09656e-014 2.78299e-015
lhumerus -57.2625 9.16877 78.0857
lradius 71.6303
lwrist -4.73457
lhand -24.3344 -10.4767
lfingers 7.12502
lthumb 2.15441 19.4921
rfemur -1.91893 13.4961 15.0309
rtibia 13.9788
rfoot -16.9333 -37.937
rtoes 21.5544
lfemur -8.16881 -9.126 -23.3599
ltibia 10.6879
lfoot -6.65326 26.707
ltoes 24.5645
347
root 7.55289 16.5213 1.56435 10.7017 -64.6219 -1.91867
lowerback -6.06586 -0.149425 -3.64936
upperback -5.22302 -0.140405 1.46313
thorax -1.98844 0.0172317 3.55542
lowerneck 2.09167 -11.6671 -7.40869
upperneck 12.9152 -16.3863 4.16518
head 4.50821 -8.33991 1.7647
rclavicle 3.57253e-014 1.63997e-014
rhumerus -58.6725 -2.69976 -80.2716
rradius 55.8171
rwrist 3.16638
rhand -11.5293 -45.0593
rfingers 7.12502
rthumb 14.5105 -74.5319
lclavicle 3.57253e-014 1.63997e-014
lhumerus -56.3372 9.87377 77.6148
lradius 69.9798
lwrist -5.86865
lhand -23.7849 -12.1118
lfingers 7.12502
lthumb 2.68513 17.8511
rfemur -1.94597 13.5227 15.0392
rtibia 14.0313
rfoot -16.4191 -37.7959
rtoes 21.1566
lfemur -8.10031 -9.03779 -23.3918
ltibia 10.8454
lfoot -7.08946 26.9936
ltoes 25.0665
348
root 7.55213 16.517 1.5518 10.6113 -65.1816 -1.93656
lowerback -5.94607 -0.155196 -3.68944
upperback -5.19836 -0.149762 1.46457
thorax -2.0287 0.0144454 3.57922
lowerneck 2.12914 -11.6802 -7.53099
upperneck 12.958 -16.4185 4.22163
head 4.5321 -8.36051 1.79647
rclavicle 3.39611e-014 -1.2921e-015
rhumerus -58.573 -2.72426 -80.2394
rradius 55.6453
rwrist 3.2687
rhand -11.5156 -44.9481
rfingers 7.12502
rthumb 14.5237 -74.4197
lclavicle 3.39611e-014 -1.2921e-015
lhumerus -56.0778 10.1324 77.5463
lradius 69.4239
lwrist -6.18793
lhand -23.253 -13.4448
lfingers 7.12502
lthumb 3.19875 16.511
rfemur -1.96792 13.3336 15.0383
rtibia 14.0943
rfoot -15.694 -37.3269
rtoes 21.1015
lfemur -8.04888 -8.78023 -23.4435
ltibia 11.0025
lfoot -6.95977 27.2857
ltoes 24.8809
349
root 7.5531 16.5108 1.54195 10.6136 -65.7249 -1.85936
lowerback -6.05949 -0.315485 -3.79557
upperback -5.17848 -0.355317 1.59974
thorax -1.92668 -0.086565 3.77051
lowerneck 2.28469 -11.563 -7.93391
upperneck 12.7919 -16.2834 4.43102
head 4.49734 -8.3056 1.93637
rclavicle -4.89631e-014 -1.26228e-014
rhumerus -58.2382 -2.09972 -80.3171
rradius 55.412
rwrist 2.71285
rhand -11.4328 -44.9911
rfingers 7.12502
rthumb 14.6035 -74.457
lclavicle -4.89631e-014 -1.26228e-014
lhumerus -56.235 10.4551 77.669
lradius 69.5876
lwrist -5.87427
lhand -23.1362 -13.5793
lfingers 7.12502
lthumb 3.3116 16.3747
rfemur -2.17331 13.2345 14.892
rtibia 14.0477
rfoot -15.2251 -36.905
rtoes 20.8744
lfemur -8.23237 -8.59404 -23.5203
ltibia 11.2195
lfoot -6.93255 27.6985
ltoes 25.0055
350
root 7.55069 16.51 1.5328 10.6893 -66.2617 -1.88192
lowerback -6.12623 -0.52096 -3.85503
upperback -5.18419 -0.625197 1.7925
thorax -1.86903 -0.219335 3.9922
lowerneck 2.58683 -11.3989 -8.43452
upperneck 12.5673 -16.0923 4.62706
head 4.42325 -8.23095 2.10116
rclavicle -7.52897e-015 -1.55052e-014
rhumerus -57.9673 -1.26013 -80.4778
rradius 55.1721
rwrist 2.13503
rhand -12.0138 -44.8183
rfingers 7.12502
rthumb 14.0437 -74.3239
lclavicle -7.52897e-015 -1.55052e-014
lhumerus -56.5433 10.9306 77.6868
lradius 69.7879
lwrist -5.5869
lhand -23 -13.429
lfingers 7.12502
lthumb 3.44305 16.523
rfemur -2.38394 13.3071 14.7887
rtibia 14.0172
rfoot -14.8783 -36.6751
rtoes 20.0676
lfemur -8.29864 -8.55816 -23.5358
ltibia 11.4125
lfoot -7.67267 28.0774
ltoes 26.4499
351
root 7.5429 16.5116 1.52058 10.798 -66.8302 -2.11836
lowerback -6.05025 -0.566495 -3.82905
upperback -5.17927 -0.689635 1.86833
thorax -1.89931 -0.25085 4.05413
lowerneck 2.99128 -11.3707 -8.63276
upperneck 12.335 -16.0863 4.71734
head 4.30957 -8.24141 2.18902
rclavicle 6.31141e-015 5.1684e-015
rhumerus -57.9571 -0.98131 -80.5738
rradius 55.0426
rwrist 1.93006
rhand -12.7475 -44.4762
rfingers 7.12502
rthumb 13.3366 -74.0294
lclavicle 6.31141e-015 5.1684e-015
lhumerus -56.7254 10.9346 77.7613
lradius 69.8642
lwrist -5.37229
lhand -22.8282 -13.4582
lfingers 7.12502
lthumb 3.609 16.4909
rfemur -2.42185 13.4687 14.8531
rtibia 14.0755
rfoot -14.7741 -36.4736
rtoes 19.6597
lfemur -8.11543 -8.48852 -23.4721
ltibia 11.4781
lfoot -8.1668 28.4864
ltoes 27.1791
352
root 7.53852 16.5088 1.50562 10.6409 -67.3544 -2.02821
lowerback -5.95973 -0.559204 -3.93846
upperback -5.19624 -0.679694 1.84174
thorax -1.96825 -0.241453 4.08981
lowerneck 2.90349 -11.6223 -8.53485
upperneck 12.5068 -16.4003 4.42349
head 4.3672 -8.40311 2.05855
rclavicle -3.99184e-014 -9.54166e-015
rhumerus -58.0422 -1.01329 -80.6233
rradius 54.9507
rwrist 1.82021
rhand -13.0584 -44.3179
rfingers 7.12502
rthumb 13.0369 -73.8905
lclavicle -3.99184e-014 -9.54166e-015
lhumerus -56.8127 10.5792 77.9402
lradius 69.9107
lwrist -5.18696
lhand -23.0588 -13.0992
lfingers 7.12502
lthumb 3.38629 16.8536
rfemur -2.49034 13.6162 14.7729
rtibia 14.1279
rfoot -14.965 -36.3251
rtoes 19.7743
lfemur -8.01786 -8.34815 -23.5405
ltibia 11.4806
lfoot -8.03275 28.8755
ltoes 26.871
353
root 7.53951 16.5066 1.49278 10.2991 -67.838 -1.63321
lowerback -5.90303 -0.576275 -4.11091
upperback -5.23551 -0.700099 1.78176
thorax -2.03878 -0.24578 4.12497
lowerneck 2.35789 -11.9175 -8.46798
upperneck 13.0732 -16.7515 4.05524
head 4.61812 -8.58058 1.86275
rclavicle -3.3694e-014 -1.13307e-014
rhumerus -58.0116 -1.03973 -80.6838
rradius 54.8086
rwrist 1.67684
rhand -13.3141 -44.5188
rfingers 7.12502
rthumb 12.7904 -74.107
lclavicle -3.3694e-014 -1.13307e-014
lhumerus -56.9299 10.2617 78.089
lradius 69.9952
lwrist -5.01828
lhand -23.4076 -12.5797
lfingers 7.12502
lthumb 3.0495 17.3783
rfemur -2.67271 13.6242 14.5213
rtibia 14.1635
rfoot -15.2089 -36.1861
rtoes 19.3262
lfemur -8.0282 -8.22426 -23.7276
ltibia 11.4728
lfoot -8.04566 29.1641
ltoes 27.193
354
root 7.53812 16.5054 1.48058 10.132 -68.4055 -1.51775
lowerback -5.85214 -0.531785 -4.17266
upperback -5.20553 -0.640027 1.72381
thorax -2.04225 -0.215008 4.10228
lowerneck 2.02087 -11.9891 -8.41912
upperneck 13.4186 -16.8452 4.03163
head 4.77946 -8.6214 1.8075
rclavicle -5.79085e-014 1.98785e-015
rhumerus -57.9036 -1.12011 -80.7159
rradius 54.6667
rwrist 1.56995
rhand -13.5555 -44.3325
rfingers 7.12502
rthumb 12.5577 -73.9351
lclavicle -5.79085e-014 1.98785e-015
lhumerus -56.9763 9.92935 78.2279
lradius 70.0645
lwrist -4.97664
lhand -23.5534 -12.555
lfingers 7.12502
lthumb 2.90865 17.4049
rfemur -2.77928 13.6271 14.4072
rtibia 14.2458
rfoot -15.2684 -35.9692
rtoes 18.3018
lfemur -7.90492 -8.04237 -23.8209
ltibia 11.4405
lfoot -8.22704 29.5256
ltoes 27.6709
